<?xml version="1.0" encoding="UTF-8" standalone="no"?>
<!-- Created with Inkscape (http://www.inkscape.org/) -->

<svg
   xmlns:dc="http://purl.org/dc/elements/1.1/"
   xmlns:cc="http://creativecommons.org/ns#"
   xmlns:rdf="http://www.w3.org/1999/02/22-rdf-syntax-ns#"
   xmlns:svg="http://www.w3.org/2000/svg"
   xmlns="http://www.w3.org/2000/svg"
   xmlns:sodipodi="http://sodipodi.sourceforge.net/DTD/sodipodi-0.dtd"
   xmlns:inkscape="http://www.inkscape.org/namespaces/inkscape"
   width="210mm"
   height="297mm"
   viewBox="0 0 744.09448819 1052.3622047"
   id="svg2"
   version="1.1"
   inkscape:version="0.91 r13725"
   sodipodi:docname="icon.svg">
  <defs
     id="defs4" />
  <sodipodi:namedview
     id="base"
     pagecolor="#ffffff"
     bordercolor="#666666"
     borderopacity="1.0"
     inkscape:pageopacity="0.0"
     inkscape:pageshadow="2"
     inkscape:zoom="1"
     inkscape:cx="283.61657"
     inkscape:cy="578.07126"
     inkscape:document-units="px"
     inkscape:current-layer="layer1"
     showgrid="false"
     inkscape:window-width="1920"
     inkscape:window-height="1017"
     inkscape:window-x="-8"
     inkscape:window-y="-8"
     inkscape:window-maximized="1"
     showguides="true"
     inkscape:guide-bbox="true" />
  <metadata
     id="metadata7">
    <rdf:RDF>
      <cc:Work
         rdf:about="">
        <dc:format>image/svg+xml</dc:format>
        <dc:type
           rdf:resource="http://purl.org/dc/dcmitype/StillImage" />
        <dc:title />
      </cc:Work>
    </rdf:RDF>
  </metadata>
  <g
     inkscape:label="Layer 1"
     inkscape:groupmode="layer"
     id="layer1">
    <g
       transform="matrix(4.1887349,0.01089311,-0.01089311,4.1887349,-4237.1528,-920.20749)"
       id="g4336"
       style="stroke:#000000"
       inkscape:transform-center-x="-78.272687"
       inkscape:transform-center-y="33.67692">
      <path
         style="fill:#060d05;fill-opacity:1;fill-rule:evenodd;stroke:#000000;stroke-width:0.2;stroke-linecap:butt;stroke-linejoin:miter;stroke-miterlimit:4;stroke-dasharray:none;stroke-opacity:1"
         d="m 1075.0878,317.66571 c 14.8369,-3.41959 17.9304,0.0297 27.0468,0.28726 8.2791,-0.16205 11.9361,-3.6399 24.8372,-0.48614 0.9345,0.11462 1.6055,0.36101 1.37,1.06066 -0.091,0.76813 0.2157,1.97271 -0.3978,2.16552 -1.8688,0.70525 -2.4975,7.10948 -3.7565,8.08753 -2.2738,2.86846 -4.6075,3.09686 -6.9385,3.44715 -7.3276,0.12126 -8.6036,-1.90079 -10.474,-3.71231 -1.0317,-1.57905 -1.9394,-3.19532 -2.3865,-4.94975 -0.1172,-1.55819 -1.3318,-1.90751 -2.2097,-1.87825 -2.0113,-0.19187 -2.2029,0.70144 -2.6958,2.32019 -0.6873,1.99405 -1.7084,4.00201 -3.8007,6.0546 -2.1381,1.74134 -4.8447,2.5894 -8.2201,2.38649 -4.9808,-0.32424 -7.5113,-2.18418 -8.1318,-3.99958 -1.8896,-3.38043 -1.3802,-6.45777 -4.1542,-8.13173 z"
         id="path4338"
         inkscape:connector-curvature="0"
         sodipodi:nodetypes="cccccccccccccccc" />
      <path
         style="fill:#23481d;fill-opacity:1;fill-rule:evenodd;stroke:#000000;stroke-width:0.1;stroke-linecap:butt;stroke-linejoin:miter;stroke-miterlimit:4;stroke-dasharray:none;stroke-opacity:1"
         d="m 1078.9327,319.94171 c 1.7035,-2.70274 5.6341,-2.52342 9.2587,-2.74004 3.9508,0.14232 10.9865,0.45875 10.4961,4.86136 -1.0518,4.51377 -3.2069,7.62322 -6.8501,8.83883 -2.8446,0.27391 -5.0268,1.38009 -10.0321,-1.06066 -1.219,-1.38207 -3.3959,-4.31538 -2.8726,-9.89949 z"
         id="path4340"
         inkscape:connector-curvature="0"
         sodipodi:nodetypes="cccccc" />
      <path
         sodipodi:nodetypes="cccccc"
         inkscape:connector-curvature="0"
         id="path4342"
         d="m 1124.9133,320.03546 c -1.7035,-2.70274 -5.5403,-2.67967 -9.1649,-2.89629 -3.9508,0.14232 -10.9865,0.45875 -10.4961,4.86136 1.0518,4.51377 3.2069,7.62322 6.8501,8.83883 2.3271,0.42176 5.0159,1.38321 10.0321,-1.06066 1.3753,-1.56957 3.1771,-4.50288 2.7788,-9.74324 z"
         style="fill:#23481d;fill-opacity:1;fill-rule:evenodd;stroke:#000000;stroke-width:0.1;stroke-linecap:butt;stroke-linejoin:miter;stroke-miterlimit:4;stroke-dasharray:none;stroke-opacity:1" />
      <path
         style="fill:#438b37;fill-opacity:1;fill-rule:evenodd;stroke:#000000;stroke-width:0.0939992;stroke-linecap:butt;stroke-linejoin:miter;stroke-miterlimit:4;stroke-dasharray:none;stroke-opacity:1"
         d="m 1088.215,317.55931 c -0.9059,0.0541 -1.8299,0.0838 -2.7318,0.14321 9.5865,2.76462 9.6046,3.89054 10.5419,9.36319 0.9218,-1.34484 1.6037,-2.99466 2.0562,-4.93679 0.461,-4.13842 -6.1525,-4.43583 -9.8663,-4.56961 z"
         id="path4344"
         inkscape:connector-curvature="0" />
      <path
         inkscape:connector-curvature="0"
         id="path4346"
         d="m 1114.7238,317.66226 c -0.9059,0.0541 -1.1093,0.23822 -2.0112,0.29763 4.2333,1.42631 8.3693,4.40527 10.5419,9.36319 0.9218,-1.34484 0.8831,-3.14908 1.3356,-5.09121 0.461,-4.13842 -6.1525,-4.43583 -9.8663,-4.56961 z"
         style="fill:#438b37;fill-opacity:1;fill-rule:evenodd;stroke:#000000;stroke-width:0.0939992;stroke-linecap:butt;stroke-linejoin:miter;stroke-miterlimit:4;stroke-dasharray:none;stroke-opacity:1"
         sodipodi:nodetypes="ccccc" />
    </g>
  </g>
</svg>
